<svg xmlns="http://www.w3.org/2000/svg" xmlns:xlink="http://www.w3.org/1999/xlink" width="128" height="128" version="1.0"><defs><linearGradient id="a"><stop offset="0" stop-color="#a76907"/><stop offset=".05" stop-color="#f5c211"/><stop offset=".1" stop-color="#cc8509"/><stop offset=".9" stop-color="#cc8509"/><stop offset=".95" stop-color="#f5c211"/><stop offset="1" stop-color="#a76907"/></linearGradient><linearGradient id="d"><stop offset="0" stop-color="#5e5c64"/><stop offset="1" stop-color="#9a9996"/></linearGradient><linearGradient id="b"><stop offset="0"/><stop offset=".538" stop-color="#5e5c64"/><stop offset=".769" stop-color="#deddda"/><stop offset="1" stop-color="#9a9996"/></linearGradient><linearGradient id="c"><stop offset="0"/><stop offset=".538" stop-color="#9a9996"/><stop offset=".769" stop-color="#f6f5f4"/><stop offset="1" stop-color="#c0bfbc"/></linearGradient><linearGradient xlink:href="#a" id="h" x1="24" y1="260" x2="104" y2="260" gradientUnits="userSpaceOnUse" gradientTransform="matrix(1 0 0 1.125 0 -36.5)"/><radialGradient xlink:href="#b" id="e" cx="64" cy="225" fx="64" fy="225" r="26" gradientTransform="translate(0 -13)" gradientUnits="userSpaceOnUse"/><linearGradient xlink:href="#b" id="g" gradientUnits="userSpaceOnUse" x1="24" y1="223" x2="50" y2="223" gradientTransform="matrix(1 0 0 .36364 40 134.91)"/><linearGradient xlink:href="#b" id="f" gradientUnits="userSpaceOnUse" gradientTransform="matrix(-1 0 0 1 88 0)" x1="24" y1="223" x2="50" y2="223"/><linearGradient xlink:href="#d" id="i" x1="84" y1="207" x2="84" y2="213" gradientUnits="userSpaceOnUse" gradientTransform="translate(0 -420)"/></defs><g transform="translate(0 -172)"><rect ry="16" rx="16" y="220" x="24" height="40" width="80" fill="#f5c211"/><g stroke="#3d3846"><path d="M44 212a20 20 0 0 1 20-20 20 20 0 0 1 20 20" fill="none" stroke="url(#e)" stroke-width="12" stroke-linejoin="round" transform="translate(0 -10)"/><path style="line-height:normal;font-variant-ligatures:normal;font-variant-position:normal;font-variant-caps:normal;font-variant-numeric:normal;font-variant-alternates:normal;font-feature-settings:normal;text-indent:0;text-align:start;text-decoration-line:none;text-decoration-style:solid;text-decoration-color:#000;text-transform:none;text-orientation:mixed;white-space:normal;shape-padding:0;isolation:auto;mix-blend-mode:normal;solid-color:#000;solid-opacity:1" d="M38 212v22h12v-22z" color="#000" font-weight="400" font-family="sans-serif" overflow="visible" fill="url(#f)" stroke="none" transform="translate(0 -10)"/><path style="line-height:normal;font-variant-ligatures:normal;font-variant-position:normal;font-variant-caps:normal;font-variant-numeric:normal;font-variant-alternates:normal;font-feature-settings:normal;text-indent:0;text-align:start;text-decoration-line:none;text-decoration-style:solid;text-decoration-color:#000;text-transform:none;text-orientation:mixed;white-space:normal;shape-padding:0;isolation:auto;mix-blend-mode:normal;solid-color:#000;solid-opacity:1" d="M78 212v8h12v-8z" color="#000" font-weight="400" font-family="sans-serif" overflow="visible" fill="url(#g)" stroke="none" transform="translate(0 -10)"/></g><rect width="80" height="32" x="24" y="260" rx="8" ry="8" fill="url(#h)"/><ellipse cx="84" cy="-210" rx="6" ry="3" transform="scale(1 -1)" fill="url(#i)"/><rect width="80" height="48" x="24" y="236" rx="8" ry="8" fill="#f5c211"/><rect ry="16" rx="16" y="220" x="24" height="32" width="80" fill="#f6d32d"/><path d="M64 240a8 8 0 0 0-8 8 8 8 0 0 0 4 6.92V268h8v-13.084A8 8 0 0 0 72 248a8 8 0 0 0-8-8z" fill="#412f03"/><path d="M64 240a8 8 0 0 0-8 8 8 8 0 0 0 1.084 3.998A8 8 0 0 1 64 248a8 8 0 0 1 6.916 3.994A8 8 0 0 0 72 248a8 8 0 0 0-8-8z" opacity=".5"/></g></svg>